# xmcd CD database file
#
# Track frame offsets:
#	150
#	9812
#	18159
#	28563
#	39576
#	50500
#	60809
#	72699
#	84027
#	96505
#	107706
#	119564
#	129126
#	135623
#	145294
#	156841
#	167537
#	178639
#	189105
#	202408
#	222662
#	236469
#	243101
#	256041
#	270754
#
# Disc length: 3767 seconds
#
# Revision: 0
# Processed by: cddbd v1.5.2PL0 Copyright (c) Steve Scherf et al.
# Submitted via: CDex 1.51
#
DISCID=490eb519
DTITLE=Various Artist - Christmas With The Jazz Legends Vol.3
DYEAR=2007
DGENRE=Jazz
TTITLE0=Tony Bennett - White Christmas
TTITLE1=Ella Fitzgerald - The First Noël
TTITLE2=Sammy Davis Jr. - Jingle Bells
TTITLE3=Frank Sinatra - Hark ! The Herald Angels Sing
TTITLE4=Peggy Lee - Christmas Carousel
TTITLE5=Tony Bennett - Winter Wonderland
TTITLE6=The Andrew Sisters - Christmas Island
TTITLE7=Chet Baker - We Three Kings
TTITLE8=Rosemary Clooney - It Came Upon The Midnight Clear
TTITLE9=Dean Martin - Silver Bells
TTITLE10=Dinah Shore - The Merry Christmas Polka
TTITLE11=Hank Jones Trio - The Christmas Song
TTITLE12=Nat King Cole - Joy To The World
TTITLE13=Ella Fitzgerald - We Three Kings
TTITLE14=Gene Autry - Here Comes Santa Claus
TTITLE15=Mantovani - Christmas Bells
TTITLE16=Rosemary Clooney - Little Drummer Boy
TTITLE17=Frank Sinatra - Mistletoe And Holly
TTITLE18=Peggy Lee - The Christmas Waltz
TTITLE19=Chet Baker - Come All Ye Faithful
TTITLE20=Percy Faith - Have Yourself A Merry Little Christmas
TTITLE21=Nat King Cole - I Saw Three Ships
TTITLE22=Ella Fitzgerald - Silent Night
TTITLE23=Mantovani - White Christmas
TTITLE24=Tony Bennett - Santa Claus Is Comin' To Town
EXTD=YEAR: 2007
EXTT0=
EXTT1=
EXTT2=
EXTT3=
EXTT4=
EXTT5=
EXTT6=
EXTT7=
EXTT8=
EXTT9=
EXTT10=
EXTT11=
EXTT12=
EXTT13=
EXTT14=
EXTT15=
EXTT16=
EXTT17=
EXTT18=
EXTT19=
EXTT20=
EXTT21=
EXTT22=
EXTT23=
EXTT24=
PLAYORDER=
